<?xml version="1.0" encoding="iso-8859-1"?>
<!-- Generator: Adobe Illustrator 21.0.0, SVG Export Plug-In . SVG Version: 6.00 Build 0)  -->
<svg version="1.1" id="Capa_1" xmlns="http://www.w3.org/2000/svg" xmlns:xlink="http://www.w3.org/1999/xlink" x="0px" y="0px"
	 viewBox="0 0 211.6 48.66" style="enable-background:new 0 0 211.6 48.66;" xml:space="preserve">
<g>
	<path style="fill:#008B55;" d="M76.25,37.67c1.81,0.88,3.74,1.36,5.81,1.43c11.08,0.38,18.82-11.01,13.93-21.12
		c-1.88-3.9-4.98-6.51-9.27-7.84C85.3,9.71,83.7,9.6,82.15,9.5c-5.88-0.41-5.49-9.32,0.25-9.49c1.92-0.05,3.9,0.17,5.95,0.67
		C102.5,4.15,110.54,19,105.55,32.7c-5.74,15.74-25.33,20.96-38.27,10.54c-5.99-4.83-9.36-12.37-8.97-20.07
		c0.3-5.82,2.5-11,6.59-15.55c1.15-1.28,2.54-1.9,4.15-1.88c2.29,0.04,4.17,1.92,4.45,4.16c0.21,1.7-0.29,2.81-1.52,4.15
		C65.09,21.52,67.08,33.18,76.25,37.67L76.25,37.67z"/>
	<path style="fill:#008B55;" d="M199.71,32.35c6.07-9.69-0.32-21.8-11.44-22.75c-1.65-0.14-2.66-0.29-3.04-0.44
		c-3.73-1.52-3.64-7.33,0.1-8.78c0.72-0.28,1.73-0.39,3.02-0.33c12.4,0.58,22.33,10.31,23.2,22.58c1.14,16.1-13.24,28.6-28.98,25.57
		c-9.38-1.8-16.83-8.94-19.04-18.23c-1.89-7.91,0.32-16.59,6.15-22.52c4.85-4.92,11.64,1.62,6.7,6.92
		c-5.67,6.08-5.18,15.91,1.29,21.26C184.38,41.19,194.94,39.97,199.71,32.35L199.71,32.35z"/>
	<path style="fill:#008B55;" d="M41.04,20.5c0-0.06-0.04-0.1-0.1-0.1c-0.03,0-0.06,0.02-0.08,0.04
		c-3.85,5.37-7.69,10.73-11.54,16.09c-1.07,1.49-2.51,2.18-4.32,2.08c-1.56-0.09-2.81-0.8-3.75-2.12
		C14.71,27.28,8.14,18.08,1.55,8.9C0.72,7.75,0.24,6.83,0.1,6.15c-0.81-3.92,3.71-7.19,7.15-5.06c0.57,0.35,1.24,1.06,2.02,2.15
		c5.32,7.41,10.64,14.81,15.94,22.2c0.06,0.08,0.16,0.09,0.24,0.04c0.02-0.01,0.03-0.02,0.04-0.04
		c5.18-7.21,10.37-14.44,15.57-21.69c1.05-1.46,1.93-2.39,2.66-2.8c3.01-1.67,6.88,0.66,6.89,4.28c0.05,12.53,0.07,25.05,0.07,37.57
		c0,1.08-0.12,1.9-0.36,2.46c-1.67,3.9-7.56,3.84-8.95-0.13c-0.22-0.63-0.32-1.77-0.32-3.43C41.09,34.62,41.08,27.55,41.04,20.5
		L41.04,20.5z"/>
	<path style="fill:#008B55;" d="M123.43,38.53c6.25,0.15,10.19,0.14,11.81-0.02c5.11-0.51,9.72-3.05,11.65-8
		c1.49-3.8,1.4-8.94-0.16-12.66c-2.45-5.81-8.12-7.87-14.26-7.86c-4.35,0-8.69,0-13.04-0.01c-1.41,0-2.44-0.16-3.09-0.48
		c-3.68-1.78-3.4-6.98,0.23-8.6c0.66-0.3,1.54-0.44,2.63-0.44c4.73,0.01,9.45,0.02,14.17,0.03c14.62,0.02,24.73,10.33,24.18,24.82
		c-0.55,14.28-10.88,22.92-24.62,22.89c-4.49-0.01-8.97-0.01-13.45,0c-1.2,0-2.15-0.14-2.83-0.45c-3.37-1.49-2.92-4.2-2.93-8.03
		c-0.02-6.16-0.02-12.33-0.02-18.5c0-1.66,0.12-2.8,0.35-3.42c1.05-2.86,4.59-3.75,7.16-2.19c1.39,0.85,2.09,2.23,2.1,4.15
		c0.02,6.2,0.02,12.4,0,18.61C123.27,38.47,123.32,38.53,123.43,38.53L123.43,38.53z"/>
	<path style="fill:#008B55;" d="M4.62,24.33H5c2.52,0,4.57,2.04,4.57,4.57v14.69c0,2.52-2.04,4.57-4.57,4.57H4.62
		c-2.52,0-4.57-2.04-4.57-4.57V28.89C0.05,26.37,2.1,24.33,4.62,24.33L4.62,24.33z"/>
</g>
</svg>
